<?xml version="1.0" standalone="no"?><!-- Generator: Gravit.io --><svg xmlns="http://www.w3.org/2000/svg" xmlns:xlink="http://www.w3.org/1999/xlink" style="isolation:isolate" viewBox="660 372 931 637.069" width="931" height="637.069"><defs><clipPath id="_clipPath_onSutpo0r3o4dSkd70joezOXbGs6HWe6"><rect x="660" y="372" width="931" height="637.069"/></clipPath></defs><g clip-path="url(#_clipPath_onSutpo0r3o4dSkd70joezOXbGs6HWe6)"><path d=" M 660 537.5 C 660 446.158 734.158 372 825.5 372 C 916.842 372 991 446.158 991 537.5 C 991 628.842 916.842 703 825.5 703 C 734.158 703 660 628.842 660 537.5 Z  M 874 455 C 874 440.098 886.098 428 901 428 C 915.902 428 928 440.098 928 455 C 928 469.902 915.902 482 901 482 C 886.098 482 874 469.902 874 455 Z " fill-rule="evenodd" fill="rgb(255,255,255)"/><path d=" M 1260 537.5 C 1260 446.158 1334.158 372 1425.5 372 C 1516.842 372 1591 446.158 1591 537.5 C 1591 628.842 1516.842 703 1425.5 703 C 1334.158 703 1260 628.842 1260 537.5 Z  M 1474 455 C 1474 440.098 1486.098 428 1501 428 C 1515.902 428 1528 440.098 1528 455 C 1528 469.902 1515.902 482 1501 482 C 1486.098 482 1474 469.902 1474 455 Z " fill-rule="evenodd" fill="rgb(255,255,255)"/><path d=" M 1232.385 738.198 L 1256.24 779.517 L 1280.096 820.836 C 1291.312 840.263 1291.312 871.806 1280.096 891.232 L 1256.24 932.551 L 1232.385 973.871 C 1221.169 993.297 1193.852 1009.069 1171.42 1009.069 L 1123.709 1009.069 L 1075.997 1009.069 C 1053.566 1009.069 1026.249 993.297 1015.033 973.871 L 991.177 932.551 L 967.322 891.232 C 956.106 871.806 956.106 840.263 967.322 820.836 L 991.177 779.517 L 1015.033 738.198 C 1026.249 718.772 1053.566 703 1075.997 703 L 1123.709 703 L 1171.42 703 C 1193.852 703 1221.169 718.772 1232.385 738.198 Z " fill="rgb(255,153,0)"/></g></svg>