<?xml version="1.0" standalone="no"?><!-- Generator: Gravit.io --><svg xmlns="http://www.w3.org/2000/svg" xmlns:xlink="http://www.w3.org/1999/xlink" style="isolation:isolate" viewBox="626.41 171 1005.508 807.569" width="1005.508" height="807.569"><defs><clipPath id="_clipPath_Y2tVtsDUgDM5ZgRHSNQRc8wJoDhx5gg5"><rect x="626.41" y="171" width="1005.508" height="807.569"/></clipPath></defs><g clip-path="url(#_clipPath_Y2tVtsDUgDM5ZgRHSNQRc8wJoDhx5gg5)"><path d=" M 627.91 537.5 C 627.91 446.158 702.068 372 793.41 372 C 884.752 372 958.91 446.158 958.91 537.5 C 958.91 628.842 884.752 703 793.41 703 C 702.068 703 627.91 628.842 627.91 537.5 Z " fill="rgb(0,0,0)" vector-effect="non-scaling-stroke" stroke-width="1" stroke="rgb(255,255,255)" stroke-linejoin="miter" stroke-linecap="square" stroke-miterlimit="3"/><path d=" M 874 455 C 874 440.098 886.098 428 901 428 C 915.902 428 928 440.098 928 455 C 928 469.902 915.902 482 901 482 C 886.098 482 874 469.902 874 455 Z " fill="rgb(0,0,0)"/><path d=" M 1300.418 537.5 C 1300.418 446.158 1374.576 372 1465.918 372 C 1557.26 372 1631.418 446.158 1631.418 537.5 C 1631.418 628.842 1557.26 703 1465.918 703 C 1374.576 703 1300.418 628.842 1300.418 537.5 Z  M 1514.418 455 C 1514.418 440.098 1526.516 428 1541.418 428 C 1556.319 428 1568.418 440.098 1568.418 455 C 1568.418 469.902 1556.319 482 1541.418 482 C 1526.516 482 1514.418 469.902 1514.418 455 Z " fill-rule="evenodd" fill="rgb(0,0,0)" vector-effect="non-scaling-stroke" stroke-width="1" stroke="rgb(255,255,255)" stroke-linejoin="miter" stroke-linecap="square" stroke-miterlimit="3"/><path d=" M 1238.475 706.198 L 1262.331 747.517 L 1286.186 788.836 C 1297.402 808.263 1297.402 839.806 1286.186 859.232 L 1262.331 900.551 L 1238.475 941.871 C 1227.259 961.297 1199.942 977.069 1177.51 977.069 L 1129.799 977.069 L 1082.088 977.069 C 1059.656 977.069 1032.339 961.297 1021.123 941.871 L 997.267 900.551 L 973.412 859.232 C 962.196 839.806 962.196 808.263 973.412 788.836 L 997.267 747.517 L 1021.123 706.198 C 1032.339 686.772 1059.656 671 1082.088 671 L 1129.799 671 L 1177.51 671 C 1199.942 671 1227.259 686.772 1238.475 706.198 Z " fill="rgb(255,153,0)" vector-effect="non-scaling-stroke" stroke-width="1" stroke="rgb(255,255,255)" stroke-linejoin="miter" stroke-linecap="square" stroke-miterlimit="3"/><rect x="639.299" y="171" width="981" height="172" transform="matrix(1,0,0,1,0,0)" fill="rgb(49,84,140)"/></g></svg>