<?xml version="1.0" standalone="no"?><!-- Generator: Gravit.io --><svg xmlns="http://www.w3.org/2000/svg" xmlns:xlink="http://www.w3.org/1999/xlink" style="isolation:isolate" viewBox="-768 68 970 970" width="970" height="970"><defs><clipPath id="_clipPath_oI5CGBpehOpejducU9MPy54jXKC40yBg"><rect x="-768" y="68" width="970" height="970"/></clipPath></defs><g clip-path="url(#_clipPath_oI5CGBpehOpejducU9MPy54jXKC40yBg)"><path d="M -540.05 68 L -25.95 68 C 99.859 68 202 170.141 202 295.95 L 202 810.05 C 202 935.859 99.859 1038 -25.95 1038 L -540.05 1038 C -665.859 1038 -768 935.859 -768 810.05 L -768 295.95 C -768 170.141 -665.859 68 -540.05 68 Z" style="stroke:none;fill:#EBEBEB;stroke-miterlimit:10;"/><path d=" M -746.532 475.5 C -746.532 384.158 -672.374 310 -581.032 310 C -489.69 310 -415.532 384.158 -415.532 475.5 C -415.532 566.842 -489.69 641 -581.032 641 C -672.374 641 -746.532 566.842 -746.532 475.5 Z " fill="rgb(0,0,0)"/><path d=" M -150.468 475.5 C -150.468 384.158 -76.31 310 15.032 310 C 106.374 310 180.532 384.158 180.532 475.5 C 180.532 566.842 106.374 641 15.032 641 C -76.31 641 -150.468 566.842 -150.468 475.5 Z  M 63.532 393 C 63.532 378.098 75.63 366 90.532 366 C 105.433 366 117.532 378.098 117.532 393 C 117.532 407.902 105.433 420 90.532 420 C 75.63 420 63.532 407.902 63.532 393 Z " fill-rule="evenodd" fill="rgb(0,0,0)"/><path d=" M -174.324 710.198 L -150.468 751.517 L -126.613 792.836 C -115.397 812.263 -115.397 843.806 -126.613 863.232 L -150.468 904.551 L -174.324 945.871 C -185.54 965.297 -212.857 981.069 -235.289 981.069 L -283 981.069 L -330.711 981.069 C -353.143 981.069 -380.46 965.297 -391.676 945.871 L -415.532 904.551 L -439.387 863.232 C -450.603 843.806 -450.603 812.263 -439.387 792.836 L -415.532 751.517 L -391.676 710.198 C -380.46 690.772 -353.143 675 -330.711 675 L -283 675 L -235.289 675 C -212.857 675 -185.54 690.772 -174.324 710.198 Z " fill="rgb(255,153,0)" vector-effect="non-scaling-stroke" stroke-width="1" stroke="rgb(255,255,255)" stroke-linejoin="miter" stroke-linecap="square" stroke-miterlimit="3"/><rect x="-768" y="239" width="970" height="151" transform="matrix(1,0,0,1,0,0)" fill="rgb(49,84,140)"/></g></svg>